<?xml version="1.0" standalone="no"?>
<!DOCTYPE svg PUBLIC "-//W3C//DTD SVG 20010904//EN"
 "http://www.w3.org/TR/2001/REC-SVG-20010904/DTD/svg10.dtd">
<svg version="1.0" xmlns="http://www.w3.org/2000/svg"
 width="170.000000pt" height="170.000000pt" viewBox="0 0 170.000000 170.000000"
 preserveAspectRatio="xMidYMid meet">
<metadata>
Created by potrace 1.16, written by Peter Selinger 2001-2019
</metadata>
<g transform="translate(0.000000,170.000000) scale(0.100000,-0.100000)"
fill="#000000" stroke="none">
<path d="M895 1640 c-86 -18 -169 -68 -159 -94 6 -16 31 -11 109 25 70 32 163
31 231 -3 138 -69 151 -248 38 -508 -68 -157 -56 -269 33 -306 63 -27 187 9
242 70 22 23 23 28 10 41 -13 13 -20 12 -56 -15 -87 -64 -177 -74 -209 -24
-25 37 -13 122 31 224 95 219 100 398 15 502 -57 68 -188 109 -285 88z"/>
<path d="M547 1542 c-10 -10 -17 -23 -17 -29 0 -17 35 -42 68 -49 26 -5 35 -1
61 27 29 31 29 34 14 51 -22 25 -104 25 -126 0z"/>
<path d="M383 1475 c-24 -10 -33 -20 -33 -38 0 -34 26 -52 75 -52 49 0 75 18
75 52 0 18 -9 28 -35 39 -41 17 -42 17 -82 -1z"/>
<path d="M765 1481 c-53 -23 -56 -70 -5 -91 30 -13 74 -7 97 12 17 14 16 53 0
67 -20 16 -68 22 -92 12z"/>
<path d="M571 1397 c-39 -19 -48 -43 -27 -66 24 -26 61 -34 102 -21 38 13 53
45 31 67 -14 14 -17 12 -31 -16 -27 -52 -74 -36 -54 18 11 30 8 33 -21 18z"/>
<path d="M378 1314 c-32 -17 -38 -54 -12 -74 8 -8 35 -13 59 -13 51 0 75 16
75 49 0 16 -10 28 -30 39 -36 19 -57 18 -92 -1z"/>
<path d="M753 1318 c-25 -12 -36 -37 -27 -61 12 -34 96 -43 132 -14 16 13 15
52 -2 66 -21 17 -78 22 -103 9z"/>
<path d="M571 1237 c-13 -6 -29 -20 -35 -29 -17 -28 24 -63 74 -63 78 0 106
70 38 94 -39 14 -47 14 -77 -2z"/>
<path d="M350 1096 l0 -86 53 -30 c28 -16 58 -30 65 -30 9 0 12 29 12 110 l0
110 -42 0 c-24 0 -53 3 -65 6 -23 6 -23 5 -23 -80z"/>
<path d="M798 1173 l-48 -4 0 -110 c0 -60 2 -109 5 -109 10 0 90 42 105 55 19
17 16 176 -3 173 -7 -1 -33 -3 -59 -5z"/>
<path d="M530 1026 c0 -98 1 -100 101 -94 l54 3 3 88 c3 85 2 88 -17 78 -25
-14 -97 -14 -122 -1 -18 10 -19 7 -19 -74z"/>
<path d="M352 893 c3 -47 4 -48 59 -76 116 -59 292 -59 403 1 48 26 51 29 56
75 5 40 4 47 -10 41 -85 -39 -161 -56 -245 -56 -92 -1 -189 20 -229 48 -32 22
-37 17 -34 -33z"/>
<path d="M352 708 l3 -73 50 -27 c73 -40 75 -39 75 46 l0 74 -37 13 c-21 6
-47 18 -58 25 -11 8 -23 14 -28 14 -4 0 -7 -33 -5 -72z"/>
<path d="M845 771 c-3 -5 -27 -17 -53 -25 l-47 -16 3 -75 c3 -72 5 -76 25 -69
12 3 38 17 59 30 35 23 36 25 40 94 2 49 -1 70 -9 70 -6 0 -14 -4 -18 -9z"/>
<path d="M532 643 l3 -78 78 -3 77 -3 0 81 0 80 -80 0 -81 0 3 -77z"/>
<path d="M352 523 c3 -45 6 -49 46 -71 126 -69 319 -68 431 2 35 22 39 30 43
70 2 26 3 46 2 46 -1 0 -26 -11 -55 -25 -128 -58 -315 -54 -438 10 l-32 16 3
-48z"/>
<path d="M350 324 l0 -85 36 -15 c25 -10 44 -12 62 -6 25 8 27 13 30 74 l3 66
-50 17 c-28 9 -53 21 -56 26 -17 26 -25 0 -25 -77z"/>
<path d="M808 383 l-58 -26 0 -59 c0 -32 -1 -61 -2 -65 -2 -3 10 -11 26 -16
21 -7 37 -5 62 6 l33 16 3 86 c2 47 1 85 -2 84 -3 0 -31 -12 -62 -26z"/>
<path d="M530 248 c0 -85 3 -101 20 -118 24 -24 86 -27 118 -4 20 14 22 23 22
118 l0 102 -80 0 -80 0 0 -98z"/>
</g>
</svg>
